<svg width="30" height="30" viewBox="0 0 30 30" fill="none" xmlns="http://www.w3.org/2000/svg">
<path d="M15 0C6.8685 0 0 6.8685 0 15C0 23.1315 6.8685 30 15 30C23.1315 30 30 23.1315 30 15C30 6.8685 23.1315 0 15 0ZM15 7.5C17.5905 7.5 19.5 9.408 19.5 12C19.5 14.592 17.5905 16.5 15 16.5C12.411 16.5 10.5 14.592 10.5 12C10.5 9.408 12.411 7.5 15 7.5ZM7.341 22.158C8.6865 20.178 10.9305 18.858 13.5 18.858H16.5C19.071 18.858 21.3135 20.178 22.659 22.158C20.742 24.21 18.0225 25.5 15 25.5C11.9775 25.5 9.258 24.21 7.341 22.158Z" fill="#393939"/>
</svg>
