<svg width="24" height="26" viewBox="0 0 24 26" fill="none" xmlns="http://www.w3.org/2000/svg">
<path d="M22.62 5.63238L12.6537 0.632379C12.4804 0.544805 12.2889 0.498972 12.0947 0.498538C11.9004 0.498104 11.7088 0.543081 11.535 0.629879L1.50125 5.62988C1.13 5.81738 0.873747 6.17613 0.821247 6.58863C0.804997 6.70988 -0.610003 18.7649 11.4975 25.3486C11.6836 25.4501 11.8926 25.5024 12.1046 25.5004C12.3166 25.4985 12.5245 25.4423 12.7087 25.3374C24.3425 18.7636 23.3512 7.12113 23.3037 6.62863C23.2833 6.41831 23.2098 6.21662 23.0902 6.0424C22.9707 5.86817 22.8089 5.72711 22.62 5.63238Z" fill="#393939"/>
</svg>
