<svg width="30" height="30" viewBox="0 0 30 30" fill="none" xmlns="http://www.w3.org/2000/svg">
<path d="M10 15.0649C12.4937 15.0649 14.375 13.1837 14.375 10.6899C14.375 8.19619 12.4937 6.31494 10 6.31494C7.50625 6.31494 5.625 8.19619 5.625 10.6899C5.625 13.1837 7.50625 15.0649 10 15.0649ZM11.25 16.2499H8.75C5.30375 16.2499 2.5 19.0537 2.5 22.4999V23.7499H17.5V22.4999C17.5 19.0537 14.6962 16.2499 11.25 16.2499ZM25.3662 10.3662L22.5 13.2324L19.6337 10.3662L17.8663 12.1337L20.7312 14.9987L17.865 17.8649L19.6325 19.6324L22.4988 16.7662L25.3662 19.6337L27.1338 17.8662L24.2675 14.9999L27.1338 12.1337L25.3662 10.3662Z" fill="#393939"/>
</svg>
