<svg width="30" height="30" viewBox="0 0 30 30" fill="none" xmlns="http://www.w3.org/2000/svg">
<path d="M25 3.75H5C3.62125 3.75 2.5 4.87125 2.5 6.25V23.75C2.5 24.413 2.76339 25.0489 3.23223 25.5178C3.70107 25.9866 4.33696 26.25 5 26.25H25C25.663 26.25 26.2989 25.9866 26.7678 25.5178C27.2366 25.0489 27.5 24.413 27.5 23.75V6.25C27.5 4.87125 26.3787 3.75 25 3.75ZM23.75 15H19.8225C19.265 17.1525 17.3263 18.75 15 18.75C12.6737 18.75 10.735 17.1525 10.1775 15H5V6.25H25V15H23.75Z" fill="#393939"/>
</svg>
