<svg width="35" height="35" viewBox="0 0 35 35" fill="none" xmlns="http://www.w3.org/2000/svg">
<g filter="url(#filter0_d_24_9)">
<path d="M29.8974 12.291C29.742 12.1737 29.5621 12.0928 29.3712 12.0543C29.1802 12.0159 28.9831 12.0209 28.7943 12.0689C28.4813 12.1563 28.1583 12.2032 27.8333 12.2084C25.6969 12.2084 23.9583 10.4698 23.9545 8.41344C23.9609 8.36953 23.9751 8.24036 23.9764 8.19644C23.9848 7.99451 23.9457 7.79342 23.8621 7.60942C23.7785 7.42541 23.6528 7.26364 23.4951 7.13717C23.3375 7.0107 23.1523 6.92307 22.9545 6.88135C22.7568 6.83964 22.552 6.84501 22.3567 6.89703C22.037 6.98709 21.7071 7.03571 21.375 7.04169C19.2386 7.04169 17.5 5.30311 17.5 3.16669C17.5 2.8864 17.54 2.59319 17.6279 2.24186C17.6776 2.04132 17.6785 1.83177 17.6305 1.63082C17.5825 1.42986 17.4869 1.24336 17.3519 1.08696C17.2169 0.930559 17.0463 0.808831 16.8545 0.731991C16.6627 0.655151 16.4553 0.625443 16.2497 0.645358C13.0508 0.943501 10.0794 2.4282 7.92029 4.80724C5.76118 7.18628 4.57076 10.2873 4.58334 13.5C4.58334 20.6223 10.3778 26.4167 17.5 26.4167C24.6223 26.4167 30.4167 20.6223 30.4167 13.5C30.4167 13.4367 30.4128 13.3747 30.4076 13.2934C30.4033 13.0987 30.3552 12.9075 30.2668 12.734C30.1785 12.5605 30.0522 12.4091 29.8974 12.291ZM12.9792 5.75002C13.493 5.75002 13.9858 5.95415 14.3492 6.31751C14.7125 6.68086 14.9167 7.17367 14.9167 7.68752C14.9167 8.20138 14.7125 8.69419 14.3492 9.05754C13.9858 9.4209 13.493 9.62502 12.9792 9.62502C12.4653 9.62502 11.9725 9.4209 11.6091 9.05754C11.2458 8.69419 11.0417 8.20138 11.0417 7.68752C11.0417 7.17367 11.2458 6.68086 11.6091 6.31751C11.9725 5.95415 12.4653 5.75002 12.9792 5.75002ZM10.3958 16.0834C10.1414 16.0834 9.88945 16.0332 9.65439 15.9359C9.41932 15.8385 9.20573 15.6958 9.02582 15.5159C8.8459 15.336 8.70319 15.1224 8.60582 14.8873C8.50845 14.6522 8.45834 14.4003 8.45834 14.1459C8.45834 13.8914 8.50845 13.6395 8.60582 13.4044C8.70319 13.1693 8.8459 12.9558 9.02582 12.7758C9.20573 12.5959 9.41932 12.4532 9.65439 12.3558C9.88945 12.2585 10.1414 12.2084 10.3958 12.2084C10.9097 12.2084 11.4025 12.4125 11.7659 12.7758C12.1292 13.1392 12.3333 13.632 12.3333 14.1459C12.3333 14.6597 12.1292 15.1525 11.7659 15.5159C11.4025 15.8792 10.9097 16.0834 10.3958 16.0834ZM14.2708 21.25C13.757 21.25 13.2642 21.0459 12.9008 20.6825C12.5375 20.3192 12.3333 19.8264 12.3333 19.3125C12.3333 18.7987 12.5375 18.3059 12.9008 17.9425C13.2642 17.5792 13.757 17.375 14.2708 17.375C14.7847 17.375 15.2775 17.5792 15.6409 17.9425C16.0042 18.3059 16.2083 18.7987 16.2083 19.3125C16.2083 19.8264 16.0042 20.3192 15.6409 20.6825C15.2775 21.0459 14.7847 21.25 14.2708 21.25ZM17.5 12.8542C17.5 12.3403 17.7041 11.8475 18.0675 11.4842C18.4308 11.1208 18.9236 10.9167 19.4375 10.9167C19.9514 10.9167 20.4442 11.1208 20.8075 11.4842C21.1709 11.8475 21.375 12.3403 21.375 12.8542C21.375 13.368 21.1709 13.8609 20.8075 14.2242C20.4442 14.5876 19.9514 14.7917 19.4375 14.7917C18.9236 14.7917 18.4308 14.5876 18.0675 14.2242C17.7041 13.8609 17.5 13.368 17.5 12.8542ZM22.0208 21.25C21.507 21.25 21.0142 21.0459 20.6508 20.6825C20.2875 20.3192 20.0833 19.8264 20.0833 19.3125C20.0833 18.7987 20.2875 18.3059 20.6508 17.9425C21.0142 17.5792 21.507 17.375 22.0208 17.375C22.5347 17.375 23.0275 17.5792 23.3909 17.9425C23.7542 18.3059 23.9583 18.7987 23.9583 19.3125C23.9583 19.8264 23.7542 20.3192 23.3909 20.6825C23.0275 21.0459 22.5347 21.25 22.0208 21.25Z" fill="#393939"/>
</g>
<defs>
<filter id="filter0_d_24_9" x="0.583237" y="0.639343" width="33.8334" height="33.7773" filterUnits="userSpaceOnUse" color-interpolation-filters="sRGB">
<feFlood flood-opacity="0" result="BackgroundImageFix"/>
<feColorMatrix in="SourceAlpha" type="matrix" values="0 0 0 0 0 0 0 0 0 0 0 0 0 0 0 0 0 0 127 0" result="hardAlpha"/>
<feOffset dy="4"/>
<feGaussianBlur stdDeviation="2"/>
<feComposite in2="hardAlpha" operator="out"/>
<feColorMatrix type="matrix" values="0 0 0 0 0 0 0 0 0 0 0 0 0 0 0 0 0 0 0.15 0"/>
<feBlend mode="normal" in2="BackgroundImageFix" result="effect1_dropShadow_24_9"/>
<feBlend mode="normal" in="SourceGraphic" in2="effect1_dropShadow_24_9" result="shape"/>
</filter>
</defs>
</svg>
