<svg width="25" height="25" viewBox="0 0 25 25" fill="none" xmlns="http://www.w3.org/2000/svg">
<path d="M24.9338 8.97621C24.8552 8.74479 24.7106 8.54145 24.5178 8.39128C24.325 8.24112 24.0924 8.15071 23.8488 8.13121L16.7225 7.56496L13.6388 0.73871C13.5406 0.51885 13.3808 0.332111 13.1788 0.201031C12.9768 0.0699515 12.7412 0.000132349 12.5004 1.87973e-07C12.2596 -0.000131973 12.024 0.0694285 11.8218 0.200287C11.6197 0.331145 11.4597 0.517708 11.3613 0.73746L8.27753 7.56496L1.15128 8.13121C0.911852 8.15018 0.682955 8.23772 0.491977 8.38337C0.300998 8.52902 0.156024 8.72661 0.0743993 8.9525C-0.00722548 9.17838 -0.0220449 9.423 0.031714 9.65709C0.0854729 9.89118 0.205534 10.1048 0.377533 10.2725L5.64378 15.4062L3.78128 23.4712C3.72473 23.7153 3.74286 23.9708 3.83331 24.2045C3.92376 24.4382 4.08236 24.6393 4.28854 24.7818C4.49471 24.9242 4.73893 25.0014 4.98951 25.0033C5.24009 25.0052 5.48546 24.9317 5.69378 24.7925L12.5 20.255L19.3063 24.7925C19.5192 24.9338 19.7703 25.0066 20.0258 25.001C20.2813 24.9954 20.529 24.9117 20.7355 24.7611C20.942 24.6105 21.0975 24.4004 21.181 24.1588C21.2645 23.9172 21.272 23.6559 21.2025 23.41L18.9163 15.41L24.5863 10.3075C24.9575 9.97246 25.0938 9.44996 24.9338 8.97621Z" fill="#393939"/>
</svg>
