<svg width="30" height="30" viewBox="0 0 30 30" fill="none" xmlns="http://www.w3.org/2000/svg">
<path d="M15 0C11.5538 0 8.75 2.80375 8.75 6.25V10H7.5C6.83696 10 6.20107 10.2634 5.73223 10.7322C5.26339 11.2011 5 11.837 5 12.5V22.5C5 23.163 5.26339 23.7989 5.73223 24.2678C6.20107 24.7366 6.83696 25 7.5 25H22.5C23.163 25 23.7989 24.7366 24.2678 24.2678C24.7366 23.7989 25 23.163 25 22.5V12.5C25 11.837 24.7366 11.2011 24.2678 10.7322C23.7989 10.2634 23.163 10 22.5 10H21.25V6.25C21.25 2.80375 18.4462 0 15 0ZM11.25 6.25C11.25 4.1825 12.9325 2.5 15 2.5C17.0675 2.5 18.75 4.1825 18.75 6.25V10H11.25V6.25ZM16.25 19.6537V22.5H13.75V19.6537C13.313 19.4035 12.9621 19.0267 12.7435 18.5729C12.525 18.1192 12.4491 17.6099 12.5259 17.1122C12.6026 16.6145 12.8284 16.1517 13.1735 15.7849C13.5185 15.4181 13.9666 15.1645 14.4588 15.0575C14.8243 14.9767 15.2033 14.9789 15.5678 15.0641C15.9323 15.1493 16.2731 15.3152 16.565 15.5496C16.8569 15.784 17.0924 16.0809 17.2542 16.4185C17.416 16.7561 17.5 17.1257 17.5 17.5C17.4993 17.9372 17.3834 18.3664 17.1639 18.7446C16.9445 19.1227 16.6292 19.4363 16.25 19.6537Z" fill="#393939"/>
</svg>
