<svg width="30" height="30" viewBox="0 0 30 30" fill="none" xmlns="http://www.w3.org/2000/svg">
<g clip-path="url(#clip0_32_539)">
<path d="M26.25 6.25H3.75C3.41848 6.25 3.10054 6.3817 2.86612 6.61612C2.6317 6.85054 2.5 7.16848 2.5 7.5V12.5H3.61625C4.86125 12.5 6.01625 13.3512 6.21625 14.58C6.27718 14.9388 6.25908 15.3066 6.16321 15.6576C6.06734 16.0087 5.89601 16.3347 5.66118 16.6127C5.42635 16.8907 5.13368 17.1142 4.80358 17.2674C4.47349 17.4207 4.11393 17.5 3.75 17.5H2.5V22.5C2.5 22.8315 2.6317 23.1495 2.86612 23.3839C3.10054 23.6183 3.41848 23.75 3.75 23.75H26.25C26.5815 23.75 26.8995 23.6183 27.1339 23.3839C27.3683 23.1495 27.5 22.8315 27.5 22.5V17.5H26.25C25.8861 17.5 25.5265 17.4207 25.1964 17.2674C24.8663 17.1142 24.5736 16.8907 24.3388 16.6127C24.104 16.3347 23.9327 16.0087 23.8368 15.6576C23.7409 15.3066 23.7228 14.9388 23.7838 14.58C23.9838 13.3512 25.1388 12.5 26.3838 12.5H27.5V7.5C27.5 7.16848 27.3683 6.85054 27.1339 6.61612C26.8995 6.3817 26.5815 6.25 26.25 6.25ZM11.25 11.25C11.5815 11.25 11.8995 11.3817 12.1339 11.6161C12.3683 11.8505 12.5 12.1685 12.5 12.5C12.5 12.8315 12.3683 13.1495 12.1339 13.3839C11.8995 13.6183 11.5815 13.75 11.25 13.75C10.9185 13.75 10.6005 13.6183 10.3661 13.3839C10.1317 13.1495 10 12.8315 10 12.5C10 12.1685 10.1317 11.8505 10.3661 11.6161C10.6005 11.3817 10.9185 11.25 11.25 11.25ZM10.25 19.25L17.75 9.25L19.75 10.75L12.25 20.75L10.25 19.25ZM18.75 18.75C18.4185 18.75 18.1005 18.6183 17.8661 18.3839C17.6317 18.1495 17.5 17.8315 17.5 17.5C17.5 17.1685 17.6317 16.8505 17.8661 16.6161C18.1005 16.3817 18.4185 16.25 18.75 16.25C19.0815 16.25 19.3995 16.3817 19.6339 16.6161C19.8683 16.8505 20 17.1685 20 17.5C20 17.8315 19.8683 18.1495 19.6339 18.3839C19.3995 18.6183 19.0815 18.75 18.75 18.75Z" fill="#393939"/>
</g>
<defs>
<clipPath id="clip0_32_539">
<rect width="30" height="30" fill="white"/>
</clipPath>
</defs>
</svg>
